<mxfile host="app.diagrams.net" agent="Mozilla/5.0 (Macintosh; Intel Mac OS X 10_15_7) AppleWebKit/537.36 (KHTML, like Gecko) Chrome/132.0.0.0 Safari/537.36" version="24.8.6">
  <diagram name="第 1 页" id="4C1jQ6-iY6VRCgOcNtaD">
    <mxGraphModel dx="1977" dy="1277" grid="1" gridSize="10" guides="1" tooltips="1" connect="1" arrows="1" fold="1" page="1" pageScale="1" pageWidth="827" pageHeight="1169" math="0" shadow="0">
      <root>
        <mxCell id="0" />
        <mxCell id="1" parent="0" />
        <mxCell id="7IpdY9rhCKOdkKuWJuXh-97" value="" style="group;direction=west;" vertex="1" connectable="0" parent="1">
          <mxGeometry x="200" y="60" width="363" height="2516" as="geometry" />
        </mxCell>
        <mxCell id="7IpdY9rhCKOdkKuWJuXh-47" value="开始" style="ellipse;aspect=fixed;strokeWidth=2;whiteSpace=wrap;" vertex="1" parent="7IpdY9rhCKOdkKuWJuXh-97">
          <mxGeometry x="188" width="47" height="47" as="geometry" />
        </mxCell>
        <mxCell id="7IpdY9rhCKOdkKuWJuXh-48" value="加载视频文件" style="whiteSpace=wrap;strokeWidth=2;" vertex="1" parent="7IpdY9rhCKOdkKuWJuXh-97">
          <mxGeometry x="133" y="97" width="156" height="49" as="geometry" />
        </mxCell>
        <mxCell id="7IpdY9rhCKOdkKuWJuXh-49" value="视频预处理" style="whiteSpace=wrap;strokeWidth=2;" vertex="1" parent="7IpdY9rhCKOdkKuWJuXh-97">
          <mxGeometry x="141" y="196" width="140" height="49" as="geometry" />
        </mxCell>
        <mxCell id="7IpdY9rhCKOdkKuWJuXh-50" value="特征点检测与跟踪" style="whiteSpace=wrap;strokeWidth=2;" vertex="1" parent="7IpdY9rhCKOdkKuWJuXh-97">
          <mxGeometry x="117" y="294" width="188" height="49" as="geometry" />
        </mxCell>
        <mxCell id="7IpdY9rhCKOdkKuWJuXh-51" value="运动估计" style="whiteSpace=wrap;strokeWidth=2;" vertex="1" parent="7IpdY9rhCKOdkKuWJuXh-97">
          <mxGeometry x="67" y="393" width="124" height="49" as="geometry" />
        </mxCell>
        <mxCell id="7IpdY9rhCKOdkKuWJuXh-52" value="抖动检测运动幅度是否超过阈值" style="rhombus;strokeWidth=2;whiteSpace=wrap;" vertex="1" parent="7IpdY9rhCKOdkKuWJuXh-97">
          <mxGeometry y="491" width="258" height="258" as="geometry" />
        </mxCell>
        <mxCell id="7IpdY9rhCKOdkKuWJuXh-53" value="标记抖动片段" style="whiteSpace=wrap;strokeWidth=2;" vertex="1" parent="7IpdY9rhCKOdkKuWJuXh-97">
          <mxGeometry x="113" y="822" width="156" height="49" as="geometry" />
        </mxCell>
        <mxCell id="7IpdY9rhCKOdkKuWJuXh-54" value="处理下一帧" style="whiteSpace=wrap;strokeWidth=2;" vertex="1" parent="7IpdY9rhCKOdkKuWJuXh-97">
          <mxGeometry x="59" y="920" width="140" height="49" as="geometry" />
        </mxCell>
        <mxCell id="7IpdY9rhCKOdkKuWJuXh-55" value="是否处理完所有帧？" style="rhombus;strokeWidth=2;whiteSpace=wrap;" vertex="1" parent="7IpdY9rhCKOdkKuWJuXh-97">
          <mxGeometry x="115" y="1019" width="193" height="193" as="geometry" />
        </mxCell>
        <mxCell id="7IpdY9rhCKOdkKuWJuXh-56" value="运动轨迹平滑" style="whiteSpace=wrap;strokeWidth=2;" vertex="1" parent="7IpdY9rhCKOdkKuWJuXh-97">
          <mxGeometry x="133" y="1284" width="156" height="49" as="geometry" />
        </mxCell>
        <mxCell id="7IpdY9rhCKOdkKuWJuXh-57" value="变换计算" style="whiteSpace=wrap;strokeWidth=2;" vertex="1" parent="7IpdY9rhCKOdkKuWJuXh-97">
          <mxGeometry x="149" y="1382" width="124" height="49" as="geometry" />
        </mxCell>
        <mxCell id="7IpdY9rhCKOdkKuWJuXh-58" value="视频帧校正" style="whiteSpace=wrap;strokeWidth=2;" vertex="1" parent="7IpdY9rhCKOdkKuWJuXh-97">
          <mxGeometry x="141" y="1481" width="140" height="49" as="geometry" />
        </mxCell>
        <mxCell id="7IpdY9rhCKOdkKuWJuXh-59" value="是否存在黑边或空白区域？" style="rhombus;strokeWidth=2;whiteSpace=wrap;" vertex="1" parent="7IpdY9rhCKOdkKuWJuXh-97">
          <mxGeometry x="91" y="1579" width="241" height="241" as="geometry" />
        </mxCell>
        <mxCell id="7IpdY9rhCKOdkKuWJuXh-60" value="裁剪或填充边缘" style="whiteSpace=wrap;strokeWidth=2;" vertex="1" parent="7IpdY9rhCKOdkKuWJuXh-97">
          <mxGeometry x="191" y="1892" width="172" height="49" as="geometry" />
        </mxCell>
        <mxCell id="7IpdY9rhCKOdkKuWJuXh-61" value="模型效果评估" style="whiteSpace=wrap;strokeWidth=2;" vertex="1" parent="7IpdY9rhCKOdkKuWJuXh-97">
          <mxGeometry x="133" y="1991" width="156" height="49" as="geometry" />
        </mxCell>
        <mxCell id="7IpdY9rhCKOdkKuWJuXh-95" value="" style="edgeStyle=orthogonalEdgeStyle;rounded=0;orthogonalLoop=1;jettySize=auto;html=1;" edge="1" parent="7IpdY9rhCKOdkKuWJuXh-97" source="7IpdY9rhCKOdkKuWJuXh-62" target="7IpdY9rhCKOdkKuWJuXh-64">
          <mxGeometry relative="1" as="geometry" />
        </mxCell>
        <mxCell id="7IpdY9rhCKOdkKuWJuXh-62" value="定量评估" style="whiteSpace=wrap;strokeWidth=2;" vertex="1" parent="7IpdY9rhCKOdkKuWJuXh-97">
          <mxGeometry x="149" y="2089" width="124" height="49" as="geometry" />
        </mxCell>
        <mxCell id="7IpdY9rhCKOdkKuWJuXh-96" value="" style="edgeStyle=orthogonalEdgeStyle;rounded=0;orthogonalLoop=1;jettySize=auto;html=1;" edge="1" parent="7IpdY9rhCKOdkKuWJuXh-97" source="7IpdY9rhCKOdkKuWJuXh-64" target="7IpdY9rhCKOdkKuWJuXh-67">
          <mxGeometry relative="1" as="geometry" />
        </mxCell>
        <mxCell id="7IpdY9rhCKOdkKuWJuXh-64" value="结果对比" style="whiteSpace=wrap;strokeWidth=2;" vertex="1" parent="7IpdY9rhCKOdkKuWJuXh-97">
          <mxGeometry x="149" y="2180" width="124" height="49" as="geometry" />
        </mxCell>
        <mxCell id="7IpdY9rhCKOdkKuWJuXh-67" value="导出修复视频" style="whiteSpace=wrap;strokeWidth=2;" vertex="1" parent="7IpdY9rhCKOdkKuWJuXh-97">
          <mxGeometry x="133" y="2270" width="156" height="49" as="geometry" />
        </mxCell>
        <mxCell id="7IpdY9rhCKOdkKuWJuXh-68" value="增加水印" style="whiteSpace=wrap;strokeWidth=2;" vertex="1" parent="7IpdY9rhCKOdkKuWJuXh-97">
          <mxGeometry x="133.5" y="2370" width="156" height="49" as="geometry" />
        </mxCell>
        <mxCell id="7IpdY9rhCKOdkKuWJuXh-69" value="结束" style="ellipse;aspect=fixed;strokeWidth=2;whiteSpace=wrap;" vertex="1" parent="7IpdY9rhCKOdkKuWJuXh-97">
          <mxGeometry x="188.5" y="2469" width="47" height="47" as="geometry" />
        </mxCell>
        <mxCell id="7IpdY9rhCKOdkKuWJuXh-70" value="" style="curved=1;startArrow=none;endArrow=block;exitX=0.49;exitY=1;entryX=0.5;entryY=0;rounded=0;" edge="1" parent="7IpdY9rhCKOdkKuWJuXh-97" source="7IpdY9rhCKOdkKuWJuXh-47" target="7IpdY9rhCKOdkKuWJuXh-48">
          <mxGeometry relative="1" as="geometry">
            <Array as="points" />
          </mxGeometry>
        </mxCell>
        <mxCell id="7IpdY9rhCKOdkKuWJuXh-71" value="" style="curved=1;startArrow=none;endArrow=block;exitX=0.5;exitY=0.99;entryX=0.5;entryY=-0.01;rounded=0;" edge="1" parent="7IpdY9rhCKOdkKuWJuXh-97" source="7IpdY9rhCKOdkKuWJuXh-48" target="7IpdY9rhCKOdkKuWJuXh-49">
          <mxGeometry relative="1" as="geometry">
            <Array as="points" />
          </mxGeometry>
        </mxCell>
        <mxCell id="7IpdY9rhCKOdkKuWJuXh-72" value="" style="curved=1;startArrow=none;endArrow=block;exitX=0.5;exitY=0.98;entryX=0.5;entryY=0;rounded=0;" edge="1" parent="7IpdY9rhCKOdkKuWJuXh-97" source="7IpdY9rhCKOdkKuWJuXh-49" target="7IpdY9rhCKOdkKuWJuXh-50">
          <mxGeometry relative="1" as="geometry">
            <Array as="points" />
          </mxGeometry>
        </mxCell>
        <mxCell id="7IpdY9rhCKOdkKuWJuXh-73" value="" style="curved=1;startArrow=none;endArrow=block;exitX=0.29;exitY=0.99;entryX=0.5;entryY=-0.01;rounded=0;" edge="1" parent="7IpdY9rhCKOdkKuWJuXh-97" source="7IpdY9rhCKOdkKuWJuXh-50" target="7IpdY9rhCKOdkKuWJuXh-51">
          <mxGeometry relative="1" as="geometry">
            <Array as="points">
              <mxPoint x="129" y="368" />
            </Array>
          </mxGeometry>
        </mxCell>
        <mxCell id="7IpdY9rhCKOdkKuWJuXh-74" value="" style="curved=1;startArrow=none;endArrow=block;exitX=0.5;exitY=0.98;entryX=0.5;entryY=0;rounded=0;" edge="1" parent="7IpdY9rhCKOdkKuWJuXh-97" source="7IpdY9rhCKOdkKuWJuXh-51" target="7IpdY9rhCKOdkKuWJuXh-52">
          <mxGeometry relative="1" as="geometry">
            <Array as="points" />
          </mxGeometry>
        </mxCell>
        <mxCell id="7IpdY9rhCKOdkKuWJuXh-75" value="是" style="curved=1;startArrow=none;endArrow=block;exitX=0.69;exitY=1;entryX=0.5;entryY=-0.01;rounded=0;" edge="1" parent="7IpdY9rhCKOdkKuWJuXh-97" source="7IpdY9rhCKOdkKuWJuXh-52" target="7IpdY9rhCKOdkKuWJuXh-53">
          <mxGeometry relative="1" as="geometry">
            <Array as="points">
              <mxPoint x="191" y="785" />
            </Array>
          </mxGeometry>
        </mxCell>
        <mxCell id="7IpdY9rhCKOdkKuWJuXh-76" value="否" style="curved=1;startArrow=none;endArrow=block;exitX=0.31;exitY=1;entryX=0.28;entryY=0;rounded=0;" edge="1" parent="7IpdY9rhCKOdkKuWJuXh-97" source="7IpdY9rhCKOdkKuWJuXh-52" target="7IpdY9rhCKOdkKuWJuXh-54">
          <mxGeometry relative="1" as="geometry">
            <Array as="points">
              <mxPoint x="68" y="785" />
              <mxPoint x="68" y="895" />
            </Array>
          </mxGeometry>
        </mxCell>
        <mxCell id="7IpdY9rhCKOdkKuWJuXh-77" value="" style="curved=1;startArrow=none;endArrow=block;exitX=0.5;exitY=0.98;entryX=0.72;entryY=0;rounded=0;" edge="1" parent="7IpdY9rhCKOdkKuWJuXh-97" source="7IpdY9rhCKOdkKuWJuXh-53" target="7IpdY9rhCKOdkKuWJuXh-54">
          <mxGeometry relative="1" as="geometry">
            <Array as="points">
              <mxPoint x="191" y="895" />
            </Array>
          </mxGeometry>
        </mxCell>
        <mxCell id="7IpdY9rhCKOdkKuWJuXh-78" value="" style="curved=1;startArrow=none;endArrow=block;exitX=0.5;exitY=0.99;entryX=0.16;entryY=0;rounded=0;" edge="1" parent="7IpdY9rhCKOdkKuWJuXh-97" source="7IpdY9rhCKOdkKuWJuXh-54" target="7IpdY9rhCKOdkKuWJuXh-55">
          <mxGeometry relative="1" as="geometry">
            <Array as="points">
              <mxPoint x="129" y="994" />
            </Array>
          </mxGeometry>
        </mxCell>
        <mxCell id="7IpdY9rhCKOdkKuWJuXh-79" value="否" style="curved=1;startArrow=none;endArrow=block;exitX=0.98;exitY=0;entryX=0.81;entryY=0.99;rounded=0;" edge="1" parent="7IpdY9rhCKOdkKuWJuXh-97" source="7IpdY9rhCKOdkKuWJuXh-55" target="7IpdY9rhCKOdkKuWJuXh-50">
          <mxGeometry relative="1" as="geometry">
            <Array as="points">
              <mxPoint x="329" y="994" />
              <mxPoint x="329" y="368" />
            </Array>
          </mxGeometry>
        </mxCell>
        <mxCell id="7IpdY9rhCKOdkKuWJuXh-80" value="是" style="curved=1;startArrow=none;endArrow=block;exitX=0.5;exitY=1;entryX=0.5;entryY=-0.01;rounded=0;" edge="1" parent="7IpdY9rhCKOdkKuWJuXh-97" source="7IpdY9rhCKOdkKuWJuXh-55" target="7IpdY9rhCKOdkKuWJuXh-56">
          <mxGeometry relative="1" as="geometry">
            <Array as="points" />
          </mxGeometry>
        </mxCell>
        <mxCell id="7IpdY9rhCKOdkKuWJuXh-81" value="" style="curved=1;startArrow=none;endArrow=block;exitX=0.5;exitY=0.98;entryX=0.5;entryY=0;rounded=0;" edge="1" parent="7IpdY9rhCKOdkKuWJuXh-97" source="7IpdY9rhCKOdkKuWJuXh-56" target="7IpdY9rhCKOdkKuWJuXh-57">
          <mxGeometry relative="1" as="geometry">
            <Array as="points" />
          </mxGeometry>
        </mxCell>
        <mxCell id="7IpdY9rhCKOdkKuWJuXh-82" value="" style="curved=1;startArrow=none;endArrow=block;exitX=0.5;exitY=0.99;entryX=0.5;entryY=-0.01;rounded=0;" edge="1" parent="7IpdY9rhCKOdkKuWJuXh-97" source="7IpdY9rhCKOdkKuWJuXh-57" target="7IpdY9rhCKOdkKuWJuXh-58">
          <mxGeometry relative="1" as="geometry">
            <Array as="points" />
          </mxGeometry>
        </mxCell>
        <mxCell id="7IpdY9rhCKOdkKuWJuXh-83" value="" style="curved=1;startArrow=none;endArrow=block;exitX=0.5;exitY=0.98;entryX=0.5;entryY=0;rounded=0;" edge="1" parent="7IpdY9rhCKOdkKuWJuXh-97" source="7IpdY9rhCKOdkKuWJuXh-58" target="7IpdY9rhCKOdkKuWJuXh-59">
          <mxGeometry relative="1" as="geometry">
            <Array as="points" />
          </mxGeometry>
        </mxCell>
        <mxCell id="7IpdY9rhCKOdkKuWJuXh-84" value="是" style="curved=1;startArrow=none;endArrow=block;exitX=0.71;exitY=1;entryX=0.5;entryY=0;rounded=0;" edge="1" parent="7IpdY9rhCKOdkKuWJuXh-97" source="7IpdY9rhCKOdkKuWJuXh-59" target="7IpdY9rhCKOdkKuWJuXh-60">
          <mxGeometry relative="1" as="geometry">
            <Array as="points">
              <mxPoint x="277" y="1856" />
            </Array>
          </mxGeometry>
        </mxCell>
        <mxCell id="7IpdY9rhCKOdkKuWJuXh-85" value="否" style="curved=1;startArrow=none;endArrow=block;exitX=0.29;exitY=1;entryX=0.29;entryY=-0.01;rounded=0;" edge="1" parent="7IpdY9rhCKOdkKuWJuXh-97" source="7IpdY9rhCKOdkKuWJuXh-59" target="7IpdY9rhCKOdkKuWJuXh-61">
          <mxGeometry relative="1" as="geometry">
            <Array as="points">
              <mxPoint x="146" y="1856" />
              <mxPoint x="146" y="1966" />
            </Array>
          </mxGeometry>
        </mxCell>
        <mxCell id="7IpdY9rhCKOdkKuWJuXh-86" value="" style="curved=1;startArrow=none;endArrow=block;exitX=0.5;exitY=0.99;entryX=0.71;entryY=-0.01;rounded=0;" edge="1" parent="7IpdY9rhCKOdkKuWJuXh-97" source="7IpdY9rhCKOdkKuWJuXh-60" target="7IpdY9rhCKOdkKuWJuXh-61">
          <mxGeometry relative="1" as="geometry">
            <Array as="points">
              <mxPoint x="277" y="1966" />
            </Array>
          </mxGeometry>
        </mxCell>
        <mxCell id="7IpdY9rhCKOdkKuWJuXh-87" value="" style="curved=1;startArrow=none;endArrow=block;exitX=0.5;exitY=0.98;entryX=0.5;entryY=0;rounded=0;" edge="1" parent="7IpdY9rhCKOdkKuWJuXh-97" source="7IpdY9rhCKOdkKuWJuXh-61" target="7IpdY9rhCKOdkKuWJuXh-62">
          <mxGeometry relative="1" as="geometry">
            <Array as="points" />
          </mxGeometry>
        </mxCell>
        <mxCell id="7IpdY9rhCKOdkKuWJuXh-93" value="" style="curved=1;startArrow=none;endArrow=block;exitX=0.5;exitY=0.98;entryX=0.5;entryY=0;rounded=0;" edge="1" parent="7IpdY9rhCKOdkKuWJuXh-97" source="7IpdY9rhCKOdkKuWJuXh-67" target="7IpdY9rhCKOdkKuWJuXh-68">
          <mxGeometry relative="1" as="geometry">
            <Array as="points" />
          </mxGeometry>
        </mxCell>
        <mxCell id="7IpdY9rhCKOdkKuWJuXh-94" value="" style="curved=1;startArrow=none;endArrow=block;exitX=0.5;exitY=0.99;entryX=0.49;entryY=-0.01;rounded=0;" edge="1" parent="7IpdY9rhCKOdkKuWJuXh-97" source="7IpdY9rhCKOdkKuWJuXh-68" target="7IpdY9rhCKOdkKuWJuXh-69">
          <mxGeometry relative="1" as="geometry">
            <Array as="points" />
          </mxGeometry>
        </mxCell>
      </root>
    </mxGraphModel>
  </diagram>
</mxfile>
